<?xml version="1.0" encoding="UTF-8" ?>
<!DOCTYPE svg PUBLIC "-//W3C//DTD SVG 1.1//EN" "http://www.w3.org/Graphics/SVG/1.1/DTD/svg11.dtd">
<svg width="512pt" height="512pt" viewBox="0 0 512 512" version="1.1" xmlns="http://www.w3.org/2000/svg">
<g id="#5557cdff">
<path fill="#5557cd" opacity="1.00" d=" M 71.55 0.00 L 440.34 0.00 C 454.64 0.43 468.75 6.00 479.26 15.75 C 491.14 26.49 498.37 42.17 498.77 58.19 C 498.94 68.79 498.82 79.40 498.83 90.00 C 498.86 97.99 497.46 106.00 494.42 113.41 C 487.17 131.68 470.37 145.76 451.09 149.63 C 440.49 151.78 429.61 150.65 418.88 150.94 C 418.86 237.28 418.90 323.62 418.86 409.96 C 419.04 425.49 413.04 441.02 402.21 452.18 C 391.33 463.69 375.73 470.55 359.89 470.73 C 343.56 470.86 327.24 470.74 310.91 470.79 C 310.90 484.52 310.91 498.26 310.91 512.00 L 310.91 512.00 C 290.92 503.50 270.93 494.99 250.94 486.50 C 231.17 494.92 211.36 503.24 191.63 511.74 L 192.70 512.00 L 191.21 512.00 C 190.65 498.28 191.13 484.52 190.97 470.78 C 152.29 470.78 113.62 470.79 74.95 470.78 C 67.16 470.82 59.31 469.72 52.02 466.90 C 35.33 460.68 21.78 446.62 16.26 429.68 C 13.99 423.04 13.12 416.01 13.16 409.02 C 13.16 292.98 13.14 176.95 13.17 60.92 C 12.96 45.17 19.12 29.42 30.21 18.21 C 40.92 7.03 56.10 0.47 71.55 0.00 M 62.92 42.87 C 56.65 46.50 52.90 53.73 53.16 60.93 C 53.14 175.62 53.17 290.31 53.15 405.00 C 53.18 408.63 52.95 412.33 53.87 415.88 C 55.44 422.11 60.28 427.36 66.31 429.53 C 70.36 431.10 74.76 430.78 79.01 430.82 C 116.33 430.81 153.65 430.81 190.97 430.82 C 190.97 418.17 190.97 405.52 190.97 392.87 C 182.13 390.21 173.86 384.47 169.91 375.92 C 166.01 368.20 167.37 359.32 167.13 351.01 C 162.42 345.09 157.52 338.79 156.49 331.05 C 154.60 321.21 158.34 311.14 164.79 303.73 C 168.72 300.19 166.60 294.59 167.13 289.99 C 166.70 279.35 171.83 268.68 180.66 262.67 C 186.29 258.42 193.38 257.43 200.05 255.89 C 202.42 253.28 203.99 250.04 206.27 247.34 C 212.43 239.17 222.78 234.39 233.00 235.02 C 239.29 235.25 245.08 237.94 250.95 239.91 C 256.54 238.03 262.03 235.52 267.98 235.08 C 277.29 234.25 286.90 237.87 293.32 244.68 C 296.61 248.18 299.10 252.32 301.85 256.24 C 307.57 257.98 313.53 259.22 318.78 262.19 C 325.63 265.98 331.16 272.34 333.40 279.89 C 335.47 286.66 334.53 293.82 334.77 300.78 C 337.05 303.67 339.40 306.54 341.33 309.70 C 346.26 317.74 347.25 328.08 343.82 336.87 C 341.93 342.19 338.15 346.49 334.77 350.90 C 334.70 356.92 335.21 363.07 333.58 368.95 C 330.63 380.03 321.91 389.46 310.91 392.89 C 310.91 405.53 310.90 418.17 310.91 430.81 C 326.95 430.78 342.99 430.88 359.03 430.77 C 367.45 430.78 375.44 424.91 377.89 416.86 C 379.36 412.05 378.75 406.94 378.88 402.00 C 378.87 288.66 378.88 175.31 378.87 61.97 C 378.90 54.49 380.11 47.11 382.31 39.98 C 279.89 39.96 177.47 39.99 75.04 39.96 C 70.84 39.88 66.53 40.61 62.92 42.87 M 428.78 42.79 C 422.72 46.25 418.86 53.07 418.91 60.04 C 418.83 77.00 418.90 93.97 418.88 110.94 C 426.29 110.82 433.73 111.19 441.13 110.73 C 450.54 109.89 458.46 101.45 458.75 92.02 C 458.95 81.33 458.84 70.64 458.80 59.96 C 458.84 52.80 454.72 45.84 448.40 42.49 C 442.41 39.11 434.66 39.24 428.78 42.79 M 223.33 289.26 C 218.60 292.74 212.84 294.33 207.13 295.33 C 207.01 300.89 207.56 306.58 206.08 312.02 C 204.78 317.25 201.46 321.65 198.22 325.84 C 201.54 330.01 204.83 334.47 206.13 339.73 C 207.53 345.00 207.03 350.51 207.12 355.91 C 212.33 357.36 217.69 358.73 222.27 361.72 C 227.47 364.95 231.22 369.96 234.45 375.07 C 239.27 373.65 243.98 371.60 249.08 371.44 C 255.37 370.92 261.45 372.96 267.25 375.17 C 270.29 370.91 273.19 366.39 277.46 363.24 C 282.46 359.25 288.73 357.54 294.79 355.90 C 294.75 350.74 294.70 345.53 295.56 340.42 C 296.64 334.83 300.02 330.08 303.62 325.82 C 300.70 321.87 297.38 317.95 296.09 313.11 C 294.35 307.52 294.85 301.59 294.79 295.82 C 289.19 294.20 283.36 292.78 278.59 289.28 C 273.78 286.08 270.48 281.24 267.31 276.53 C 261.78 278.60 256.04 280.58 250.05 280.32 C 244.68 280.21 239.59 278.34 234.61 276.53 C 231.43 281.23 228.11 286.04 223.33 289.26 M 230.98 416.85 C 230.97 428.42 230.97 439.99 230.98 451.56 C 237.64 448.74 244.28 445.88 250.94 443.07 C 257.61 445.89 264.27 448.74 270.93 451.56 C 270.94 439.98 270.94 428.40 270.94 416.82 C 263.92 416.86 257.40 414.08 250.91 411.78 C 244.45 414.11 237.96 416.84 230.98 416.85 Z" />
<path fill="#5557cd" opacity="1.00" d=" M 94.13 79.97 C 175.72 79.97 257.31 79.97 338.91 79.97 C 338.91 93.29 338.91 106.61 338.91 119.93 C 257.31 119.94 175.72 119.94 94.12 119.93 C 94.12 106.61 94.12 93.29 94.13 79.97 Z" />
<path fill="#5557cd" opacity="1.00" d=" M 94.13 159.94 C 142.40 159.93 190.67 159.94 238.94 159.94 C 238.94 173.26 238.94 186.58 238.93 199.91 C 190.66 199.91 142.40 199.91 94.13 199.91 C 94.12 186.59 94.12 173.26 94.13 159.94 Z" />
</g>
</svg>
